<svg xmlns="http://www.w3.org/2000/svg" viewBox="0 0 512 512">
  <!-- Background circle -->
  <circle cx="256" cy="256" r="256" fill="#0E0E2C"/>
  <!-- Mountains / Logo Mark (scaled & centred) -->
  <!-- Left mountain group -->
  <polygon points="60,370 158,190 210,272 138,370" fill="#4444E0"/>
  <polygon points="158,190 192,248 168,370 138,370 210,272" fill="#2929CC"/>
  <!-- Centre peak (tallest) -->
  <polygon points="168,370 256,90 344,370" fill="#4444E0"/>
  <polygon points="256,90 292,168 278,370 234,370 220,168" fill="#2929CC"/>
  <!-- Right mountain group -->
  <polygon points="302,272 354,190 452,370 380,370" fill="#4444E0"/>
  <polygon points="354,190 388,248 362,370 380,370 302,272" fill="#2929CC"/>
  <!-- Peak highlight on centre -->
  <polygon points="236,156 256,90 276,156 268,208 244,208" fill="white" opacity="0.5"/>
  <!-- Gold accent line at base -->
  <rect x="80" y="375" width="352" height="4" rx="2" fill="#C9AA71" opacity="0.7"/>
</svg>
