<svg xmlns="http://www.w3.org/2000/svg" viewBox="0 0 260 180" fill="none">
  <polygon points="10,143 60,55 85,92 50,143" fill="#4444E0"/>
  <polygon points="60,55 72,78 62,143 50,143 85,92" fill="#2929CC"/>
  <polygon points="62,143 130,18 198,143" fill="#4444E0"/>
  <polygon points="130,18 150,58 138,143 122,143 110,58" fill="#2929CC"/>
  <polygon points="175,92 200,55 250,143 210,143" fill="#4444E0"/>
  <polygon points="200,55 213,78 198,143 210,143 175,92" fill="#2929CC"/>
  <polygon points="120,62 130,18 140,62 133,85 127,85" fill="white" opacity="0.55"/>
</svg>
